<svg width="77" height="77" viewBox="0 0 77 77" fill="none" xmlns="http://www.w3.org/2000/svg">
<g clip-path="url(#clip0_1_10)">
<path d="M40.7105 39.1159L40.7184 39.6155L41.2188 39.608C44.7985 39.553 48.2534 40.922 50.8238 43.4141C53.394 45.9062 54.8694 49.3175 54.9249 52.8971L54.9323 53.3976L54.9319 53.3984C54.9845 56.8456 53.6659 60.1727 51.2658 62.6477C48.8658 65.1226 45.5808 66.5433 42.1336 66.5966C40.2779 66.6251 38.4865 65.9152 37.1539 64.6233C35.9045 63.412 35.1541 61.7814 35.0415 60.0531L35.0277 59.7066L34.7989 44.8787L34.785 44.0125L34.0421 44.4572L21.3149 52.0689C19.7219 53.0214 17.8153 53.3024 16.0154 52.8496C14.2155 52.3968 12.6689 51.2474 11.7161 49.6547C9.94669 46.6958 9.42515 43.155 10.2658 39.8115C11.1066 36.468 13.241 33.5953 16.1996 31.8253L16.2 31.8245L16.6294 31.5673L16.6291 31.566C19.3504 29.9384 22.5589 29.3216 25.6901 29.822C28.8216 30.3227 31.6769 31.9101 33.7553 34.3053L34.6539 35.3412L34.6333 33.9693L34.3718 17.0407C34.35 15.6264 34.8914 14.2617 35.876 13.2462C36.8605 12.2308 38.208 11.648 39.6221 11.626L40.2889 11.6151L40.7105 39.1159ZM29.9932 39.3058C28.9726 37.5987 27.3155 36.3672 25.3868 35.8816C23.5786 35.4264 21.6704 35.6623 20.0322 36.5344L19.7079 36.7171L19.2786 36.9742C17.6858 37.9275 16.5366 39.4745 16.084 41.2748C15.6318 43.0735 15.9127 44.978 16.8635 46.5704L16.863 46.5712C17.1462 47.0534 17.765 47.2006 18.2346 46.9204L18.2351 46.9196L29.8201 39.9918L30.2495 39.7347L29.9932 39.3058ZM46.647 47.722C45.219 46.3375 43.2999 45.5768 41.3112 45.6074L40.8108 45.6149L40.8187 46.1145L41.028 59.6125C41.0358 60.1653 41.4894 60.604 42.0367 60.5991L42.0403 60.5989C42.9594 60.5848 43.8669 60.3898 44.7107 60.025C45.5546 59.6601 46.3182 59.1323 46.9583 58.4722C47.5983 57.8122 48.1028 57.0332 48.4415 56.1785C48.7802 55.3237 48.9467 54.4102 48.9324 53.4908L48.9259 52.9909L48.9105 52.619C48.79 50.7669 47.9858 49.0201 46.647 47.722ZM59.7736 22.85L59.7745 22.8505C60.4681 24.01 60.6955 25.3897 60.4112 26.7106C60.1268 28.0317 59.3507 29.195 58.2411 29.9665L57.9255 30.1719L46.3298 37.1048L46.2228 30.1763L59.4319 22.2774L59.7736 22.85Z" stroke="black"/>
</g>
<defs>
<clipPath id="clip0_1_10">
<rect width="56" height="56" fill="white" transform="translate(27.2492) rotate(29.1169)"/>
</clipPath>
</defs>
</svg>
